<mxfile host="app.diagrams.net" modified="2023-10-03T09:02:37.586Z" agent="Mozilla/5.0 (Windows NT 10.0; Win64; x64) AppleWebKit/537.36 (KHTML, like Gecko) Chrome/115.0.0.0 Safari/537.36" version="22.0.1" etag="s_x92eM08xmodDc2uuFv" type="github">
  <diagram name="Side-1" id="gF-ro60UGXMZt58oerHd">
    <mxGraphModel>
      <root>
        <mxCell id="0" />
        <mxCell id="1" parent="0" />
      </root>
    </mxGraphModel>
  </diagram>
</mxfile>
